<svg class="ldi-p9er78" width="200px"  height="200px"  xmlns="http://www.w3.org/2000/svg" xmlns:xlink="http://www.w3.org/1999/xlink" viewBox="0 0 100 100" preserveAspectRatio="xMidYMid" style="background: none;"><!--?xml version="1.0" encoding="utf-8"?--><!--Generator: Adobe Illustrator 21.0.0, SVG Export Plug-In . SVG Version: 6.00 Build 0)--><svg version="1.1" id="圖層_1" xmlns="http://www.w3.org/2000/svg" xmlns:xlink="http://www.w3.org/1999/xlink" x="0px" y="0px" viewBox="0 0 100 100" style="transform-origin: 50px 50px 0px;" xml:space="preserve"><g style="transform-origin: 50px 50px 0px;"><g style="transform-origin: 50px 50px 0px; transform: scale(0.6);"><g style="transform-origin: 50px 50px 0px;"><g><style type="text/css" class="ld ld-breath" style="transform-origin: 50px 50px 0px; animation-duration: 1s; animation-delay: -1s; animation-direction: normal;">.st0{fill:#662D91;} .st1{fill:#A0C8D7;} .st2{fill:#ABBD81;} .st3{fill:#F47E60;} .st4{fill:#FFDC6C;} .st5{fill:#E15B64;} .st6{fill:#F2F2F2;} .st7{fill:#FCEE21;} .st8{fill:#EEF4DC;} .st9{fill:#F5E6C8;} .st10{fill:#C33737;} .st11{fill:#333333;} .st12{fill:#666666;} .st13{fill:#CCCCCC;} .st14{fill:#FFC28A;} .st15{fill:#4D4D4D;} .st16{fill:#999999;} .st17{fill:#29ABE2;} .st18{fill:#166496;} .st19{fill:#0071BC;} .st20{fill:#F7931E;} .st21{fill:#3E4D8A;} .st22{fill:#ED1E79;} .st23{fill:#9E005D;} .st24{fill:#D4145A;} .st25{fill:none;} .st26{fill:#ED1C24;} .st27{fill:#F15A24;} .st28{fill:#FBB03B;} .st29{fill:#C7B299;} .st30{fill:none;stroke:#FFFFFF;stroke-width:4;stroke-linecap:round;stroke-miterlimit:10;} .st31{fill:#C69C6D;} .st32{fill:#808080;} .st33{fill:#39B54A;} .st34{fill:#FFFFFF;} .st35{fill:#F6FF3F;} .st36{fill:#FF0000;} .st37{fill:#603813;} .st38{fill:#42210B;} .st39{fill:#1A1A1A;} .st40{fill:#FFD6B0;} .st41{fill:#C28851;} .st42{fill:#FFC28A;stroke:#FFFFFF;stroke-width:2;stroke-miterlimit:10;} .st43{fill:#009245;} .st44{fill:none;stroke:#333333;stroke-linecap:round;stroke-miterlimit:10;} .st45{fill:#E0E0E0;} .st46{fill:#C59B6D;} .st47{fill:#3399CC;} .st48{fill:#9F69B8;} .st49{fill:#EFBF4E;} .st50{fill:#353035;} .st51{fill:#77A4BD;} .st52{fill:#131F25;} .st53{fill:#494B32;} .st54{fill:none;stroke:#754C24;stroke-miterlimit:10;} .st55{fill:#754C24;} .st56{fill:#B2A44F;} .st57{fill:#48462D;} .st58{opacity:0.6;fill:#F73D7E;} .st59{opacity:0.8;fill:#F73D7E;} .st60{fill:#F73D7E;} .st61{opacity:0.59;fill:#3399CC;} .st62{fill:#DBDBDB;} .st63{fill:#3FAB4B;} .st64{fill:#E3A735;} .st65{fill:#E48E11;} .st66{fill:#A67C52;} .st67{fill:#8C6239;} .st68{fill:#666666;stroke:#F2F2F2;stroke-width:1.5;stroke-miterlimit:10;} .st69{fill:none;stroke:#333333;stroke-width:1.5;stroke-miterlimit:10;} .st70{fill:#62A562;} .st71{opacity:0.76;fill:#2E6045;} .st72{fill:#2E6045;} .st73{opacity:0.8;fill:#2E6045;} .st74{fill:#F8B26A;stroke:#231815;stroke-miterlimit:10;} .st75{fill:#F1F5DB;} .st76{fill:#FEAE01;} .st77{fill:#FF9400;} .st78{fill:none;stroke:#B3B3B3;stroke-width:3;stroke-miterlimit:10;} .st79{fill:#B3B3B3;} .st80{fill:none;stroke:#000000;stroke-width:1.5;stroke-miterlimit:10;} .st81{fill:none;stroke:#754C24;stroke-width:3;stroke-miterlimit:10;} .st82{fill:#C5C2BA;} .st83{fill:#E62B0F;} .st84{fill:#F2E336;} .st85{fill:#96AB5F;} .st86{fill:#C0996D;} .st87{fill:#573E31;} .st88{fill:none;stroke:#754C24;stroke-width:2;stroke-linecap:round;stroke-miterlimit:10;} .st89{fill:#534741;} .st90{fill:#F8B26A;} .st91{fill:#F8B26A;stroke:#F2F2F2;stroke-width:0.4104;stroke-miterlimit:10;} .st92{fill:none;stroke:#FFFFFF;stroke-width:1.8418;stroke-miterlimit:10;} .st93{fill:#F73D7E;stroke:#FFFFFF;stroke-width:1.5;stroke-miterlimit:10;} .st94{fill:#F8B26A;stroke:#FFFFFF;stroke-width:2.2377;stroke-miterlimit:10;} .st95{fill:#C33737;stroke:#FFFFFF;stroke-width:1.1035;stroke-miterlimit:10;} .st96{fill:none;stroke:#333333;stroke-width:3.876;stroke-miterlimit:10;} .st97{fill:#31F294;} .st98{fill:#66503A;} .st99{fill:#E15C65;}</style><g class="ld ld-breath" style="transform-origin: 50px 50px 0px; animation-duration: 1s; animation-delay: -0.944444s; animation-direction: normal;"><path class="st31" d="M60.27,45.943c-3.081-1.522-6.567-2.397-10.27-2.397c-3.704,0-7.189,0.875-10.27,2.397 C32.473,49.528,27.5,56.774,27.5,65.149v14.467c0,2.984,2.52,5.403,5.628,5.403h33.745c3.108,0,5.628-2.419,5.628-5.403V65.149 C72.5,56.774,67.527,49.528,60.27,45.943z" fill="#fafafa" style="fill: rgb(250, 250, 250);"></path></g><g class="ld ld-breath" style="transform-origin: 50px 50px 0px; animation-duration: 1s; animation-delay: -0.888889s; animation-direction: normal;"><path class="st52" d="M51.692,53.331h-3.384l-1.591-3.82c-0.365-0.876,0.279-1.842,1.228-1.842h4.111 c0.949,0,1.593,0.966,1.228,1.842L51.692,53.331z" fill="rgb(19, 31, 37)" style="fill: rgb(19, 31, 37);"></path></g><g class="ld ld-breath" style="transform-origin: 50px 50px 0px; animation-duration: 1s; animation-delay: -0.833333s; animation-direction: normal;"><path class="st52" d="M52.223,76.887l-1.153,1.402c-0.554,0.673-1.585,0.673-2.139,0l-1.153-1.402 c-1.168-1.42-1.714-3.252-1.512-5.08l2.043-18.476H50h1.692l2.043,18.476C53.937,73.635,53.392,75.467,52.223,76.887z" fill="rgb(19, 31, 37)" style="fill: rgb(19, 31, 37);"></path></g><g class="ld ld-breath" style="transform-origin: 50px 50px 0px; animation-duration: 1s; animation-delay: -0.777778s; animation-direction: normal;"><circle class="st29" cx="50" cy="34.032" r="14.513" fill="rgb(199, 178, 153)" style="fill: rgb(199, 178, 153);"></circle></g><g class="ld ld-breath" style="transform-origin: 50px 50px 0px; animation-duration: 1s; animation-delay: -0.722222s; animation-direction: normal;"><path class="st87" d="M63.057,25.429c-0.189,0.11-0.382,0.214-0.579,0.314c-0.396,0.2-0.81,0.381-1.244,0.545 c-0.217,0.082-0.439,0.16-0.666,0.233c-0.454,0.147-0.928,0.278-1.424,0.393c-2.478,0.577-5.485,0.777-9.144,0.777 c-3.658,0-6.666-0.199-9.144-0.777c-0.496-0.115-0.97-0.246-1.424-0.393c-0.227-0.074-0.449-0.151-0.666-0.233 c-0.434-0.164-0.848-0.345-1.244-0.545c-0.198-0.1-0.391-0.205-0.579-0.314c0.101,0.503,0.338,1.005,0.503,1.563 c1.138,3.865,6.138,7.307,12.555,7.041c6.416,0.266,11.458-3.051,12.555-7.041C62.709,26.431,62.956,25.932,63.057,25.429z" fill="#444444" style="fill: rgb(68, 68, 68);"></path></g><g class="ld ld-breath" style="transform-origin: 50px 50px 0px; animation-duration: 1s; animation-delay: -0.666667s; animation-direction: normal;"><path class="st31" d="M63.843,19.64c-0.009,0-0.017,0-0.026,0c-3.582,0-6.884-1.2-9.526-3.219c-2.511-1.92-6.071-1.92-8.583,0 c-2.642,2.019-5.944,3.219-9.526,3.219c-0.009,0-0.017,0-0.026,0c-1.264-0.002-2.132,1.265-1.631,2.425 c0.316,0.731,2.042,2.812,2.416,3.364c3.016,1.753,7.204,2.263,13.057,2.263s10.041-0.51,13.057-2.263 c0.374-0.551,2.1-2.633,2.416-3.364C65.975,20.905,65.107,19.638,63.843,19.64z" fill="#fafafa" style="fill: rgb(250, 250, 250);"></path></g><g class="ld ld-breath" style="transform-origin: 50px 50px 0px; animation-duration: 1s; animation-delay: -0.611111s; animation-direction: normal;"><path class="st75" d="M50,20.136c-1.381,0-2.5,1.112-2.5,1.59c0,0.478,0.625,3.86,2.5,3.86s2.5-3.382,2.5-3.86 C52.5,21.248,51.381,20.136,50,20.136z" fill="#fed303" style="fill: rgb(254, 211, 3);"></path></g><g class="ld ld-breath" style="transform-origin: 50px 50px 0px; animation-duration: 1s; animation-delay: -0.555556s; animation-direction: normal;"><path class="st75" d="M63.055,62.785c-0.002-0.063-0.007-0.123-0.013-0.181c-0.088-0.869-0.537-1.238-0.549-2.173 c0-0.001,0-0.003,0-0.004c-0.001-0.047,0-0.095,0.002-0.145c0.001-0.017,0.002-0.035,0.003-0.053 c0.002-0.035,0.004-0.07,0.007-0.106c0.002-0.022,0.004-0.044,0.006-0.067c0.003-0.034,0.007-0.068,0.011-0.103 c0.003-0.025,0.007-0.05,0.01-0.076c0.005-0.035,0.01-0.07,0.016-0.106c0.004-0.027,0.009-0.054,0.014-0.082 c0.007-0.038,0.015-0.076,0.023-0.116c0.006-0.028,0.011-0.056,0.018-0.085c0.009-0.043,0.02-0.088,0.031-0.132 c0.007-0.027,0.012-0.053,0.02-0.081c0.018-0.071,0.038-0.144,0.06-0.219c0-0.001,0-0.002,0.001-0.003L62.174,58.6l0,0 c-0.824,0.448-1.82,0.209-2.202-0.149c-0.058-0.054-0.103-0.112-0.129-0.17c-0.002-0.004-0.006-0.003-0.009-0.006 c-0.001,0.001-0.002,0.001-0.002,0.002c-0.001,0-0.002-0.001-0.002-0.002c-0.003,0.003-0.007,0.002-0.009,0.006 c-0.027,0.058-0.071,0.115-0.129,0.17c-0.382,0.358-1.378,0.596-2.202,0.149c0,0,0,0,0,0l-0.541,0.455 c0,0.001,0.001,0.002,0.001,0.003c0.022,0.075,0.041,0.148,0.059,0.219c0.007,0.028,0.013,0.055,0.02,0.083 c0.011,0.044,0.021,0.088,0.031,0.131c0.006,0.029,0.012,0.057,0.018,0.085c0.008,0.039,0.016,0.078,0.023,0.116 c0.005,0.028,0.01,0.055,0.014,0.082c0.006,0.036,0.012,0.072,0.017,0.106c0.004,0.025,0.007,0.051,0.01,0.076 c0.004,0.035,0.008,0.069,0.011,0.103c0.002,0.022,0.005,0.045,0.006,0.067c0.003,0.036,0.005,0.071,0.007,0.106 c0.001,0.018,0.002,0.036,0.003,0.053c0.002,0.05,0.002,0.098,0.002,0.145c0,0.001,0,0.003,0,0.004 c-0.005,0.371-0.078,0.653-0.171,0.913c-0.089,0.25-0.199,0.493-0.275,0.748c-0.032,0.108-0.06,0.221-0.081,0.345 c-0.018,0.108-0.03,0.223-0.035,0.348c-0.003,0.082-0.003,0.168,0,0.259c0.003,0.091,0.011,0.187,0.022,0.289 c0.091,0.811,0.562,1.453,1.252,1.866c0.514,0.308,1.087,0.454,1.632,0.687c0.103,0.055,0.184,0.106,0.236,0.153 c0.022,0.02,0.051,0.026,0.079,0.021c0.001,0,0.002,0,0.002,0c0.002,0,0.002,0,0.003,0c0.028,0.005,0.057-0.002,0.079-0.021 c0.051-0.047,0.133-0.098,0.236-0.153c0.546-0.233,1.118-0.379,1.632-0.687c0.69-0.412,1.161-1.056,1.252-1.866 C63.056,63.129,63.061,62.949,63.055,62.785z" fill="#fed303" style="fill: rgb(254, 211, 3);"></path></g><metadata xmlns:d="https://loading.io/stock/" class="ld ld-breath" style="transform-origin: 50px 50px 0px; animation-duration: 1s; animation-delay: -0.5s; animation-direction: normal;">
<d:name class="ld ld-breath" style="transform-origin: 50px 50px 0px; animation-duration: 1s; animation-delay: -0.444444s; animation-direction: normal;">police officer</d:name>
<d:tags class="ld ld-breath" style="transform-origin: 50px 50px 0px; animation-duration: 1s; animation-delay: -0.388889s; animation-direction: normal;">sheriff,cop,policeman,ranger,interpol,police officer,people</d:tags>
<d:license class="ld ld-breath" style="transform-origin: 50px 50px 0px; animation-duration: 1s; animation-delay: -0.333333s; animation-direction: normal;">rf</d:license>
<d:slug class="ld ld-breath" style="transform-origin: 50px 50px 0px; animation-duration: 1s; animation-delay: -0.277778s; animation-direction: normal;">p9er78</d:slug>
</metadata></g></g></g></g><style type="text/css" class="ld ld-breath" style="transform-origin: 50px 50px 0px; animation-duration: 1s; animation-delay: -0.222222s; animation-direction: normal;">path,ellipse,circle,rect,polygon,polyline,line { stroke-width: 0; }@keyframes ld-breath {
  0% {
    -webkit-transform: scale(0.86);
    transform: scale(0.86);
  }
  50% {
    -webkit-transform: scale(1.06);
    transform: scale(1.06);
  }
  100% {
    -webkit-transform: scale(0.86);
    transform: scale(0.86);
  }
}
@-webkit-keyframes ld-breath {
  0% {
    -webkit-transform: scale(0.86);
    transform: scale(0.86);
  }
  50% {
    -webkit-transform: scale(1.06);
    transform: scale(1.06);
  }
  100% {
    -webkit-transform: scale(0.86);
    transform: scale(0.86);
  }
}
.ld.ld-breath {
  -webkit-animation: ld-breath 1s infinite;
  animation: ld-breath 1s infinite;
}
</style></svg></svg>